<?xml version="1.0"?>
<svg xmlns="http://www.w3.org/2000/svg" xmlns:xlink="http://www.w3.org/1999/xlink" xmlns:svgjs="http://svgjs.com/svgjs" version="1.1" width="64" height="64" x="0" y="0" viewBox="0 0 64 64" style="enable-background:new 0 0 32 32" xml:space="preserve" class=""><g transform="matrix(0.31999999999999995,0,0,0.32000000000000006,21.76000129699706,21.76018222808838)"><path xmlns="http://www.w3.org/2000/svg" d="m37.379 12.552c-.799-.761-2.066-.731-2.827.069-.762.8-.73 2.066.069 2.828l15.342 14.551h-39.963c-1.104 0-2 .896-2 2s.896 2 2 2h39.899l-15.278 14.552c-.8.762-.831 2.028-.069 2.828.393.412.92.62 1.448.62.496 0 .992-.183 1.379-.552l17.449-16.62c.756-.755 1.172-1.759 1.172-2.828s-.416-2.073-1.207-2.862z" fill="#9879e9" data-original="#000000" style="" class=""/></g></svg>
